<svg xmlns="http://www.w3.org/2000/svg" viewBox="0 0 159 159"><title>closeup</title><g id="Layer_2" data-name="Layer 2"><g id="Layer_1-2" data-name="Layer 1"><circle cx="79.5" cy="79.5" r="75" fill="none" stroke="#0076b7" stroke-miterlimit="10" stroke-width="9"/><path d="M74.84,88.7C65.16,87.1,57.06,83.43,51.05,76c-10.37-12.8-7-32.32,8.69-40.73q2.7,10.26,5.41,20.56A67.1,67.1,0,0,1,79.79,29.56,70.2,70.2,0,0,1,94.42,55.85l5.43-20.57c16.12,8.57,20.06,30.42,6,43.67C100,84.45,93,87.35,85,88.65V110.4a57,57,0,0,1,19.29-17.76C112,88.23,120,84.92,128.93,84c1.65,25.54-23,47.1-54.09,44.28Z" fill="#0076b7"/><path d="M30.76,83.55c4.56,1.25,9.11,2.19,13.45,3.75a59.72,59.72,0,0,1,24.15,15.51,6,6,0,0,1,1.47,3.65c.14,6.93.07,13.87.07,20.83C47.56,125.31,28.92,105.25,30.76,83.55Z" fill="#0076b7"/></g></g></svg>