<svg xmlns="http://www.w3.org/2000/svg" viewBox="0 0 159 159"><title>coastmaterial</title><g id="Layer_2" data-name="Layer 2"><g id="Layer_1-2" data-name="Layer 1"><path d="M73.85,28a12.8,12.8,0,0,0-7-2.62,13,13,0,0,0-9.08,3.24,10.39,10.39,0,0,1,5.85-1.5,11,11,0,0,1,7.73,4.08c-.75-.31-8.48-3.34-15.33,1.15a15.92,15.92,0,0,0-6.09,7.84A18,18,0,0,1,62.32,34a17.18,17.18,0,0,1,9,2.11,10.43,10.43,0,0,0-11,12.7A15.32,15.32,0,0,1,73.52,37.72a5.33,5.33,0,0,0-1.37,4.61,5.1,5.1,0,0,0,4.23,3.85,4.2,4.2,0,0,1,.21-7.87l7.3,19.2H94.68L81.24,36.27a6.57,6.57,0,0,1,4.85-1.41,7,7,0,0,1,5.1,4,8.23,8.23,0,0,0-11.28-7.22,6.75,6.75,0,0,1,4.19-2.86c2.91-.5,6.11,1.38,7.59,4.73A9.5,9.5,0,0,0,84.47,27a9.38,9.38,0,0,0-6.88,1.62,4.12,4.12,0,0,1-.09-4.23c1.15-1.66,4.16-2.12,6.48-.25a5.68,5.68,0,0,0-5.85-2.74A5.79,5.79,0,0,0,73.85,28Z" fill="#0076b7" stroke="#0076b7" stroke-miterlimit="10" stroke-width="0.5"/><path d="M150.55,62.25l-2.67-9.82h0c-68.32,2.25-92.35,6.76-92.69,12.05-.33,5,20.31,8.56,20.24,16.92,0,4.95-7.3,8.55-28.54,18.25-12.44,5.69-24,10.87-34.46,15.51A75,75,0,0,0,150.55,62.25ZM108.77,125.9a6.67,6.67,0,0,1-8.43,0,5.21,5.21,0,0,1,0-7.68,6.67,6.67,0,0,1,8.43,0,5.21,5.21,0,0,1,0,7.68Zm10-28.23a15.93,15.93,0,0,1-3.35,4.39l-3.63,3.38a8.6,8.6,0,0,0-2.15,3,12.06,12.06,0,0,0-.66,4h-9a20.72,20.72,0,0,1,1-7.29,11.48,11.48,0,0,1,3.39-4.63A22.7,22.7,0,0,0,107.92,97a5.88,5.88,0,0,0,1.22-3.59q0-4.77-4.11-4.77A3.82,3.82,0,0,0,102,90a5.9,5.9,0,0,0-1.23,3.76H90.05q.06-6.31,4-9.84t11-3.52q7.05,0,10.92,3.25t3.87,9.26A10.7,10.7,0,0,1,118.77,97.67Z" fill="#0076b7" stroke="#0076b7" stroke-miterlimit="10" stroke-width="0.5"/><circle cx="79.5" cy="79.5" r="75" fill="none" stroke="#0076b7" stroke-miterlimit="10" stroke-width="9"/></g></g></svg>