<svg xmlns="http://www.w3.org/2000/svg" viewBox="0 0 159.96 159.96"><title>notonlybeaches</title><g id="Layer_2" data-name="Layer 2"><g id="Layer_1-2" data-name="Layer 1"><path d="M13.3,102.74v11.59a75,75,0,0,0,138.16-11.59Z" fill="#0076b7" stroke="#0076b7" stroke-miterlimit="10" stroke-width="9.96"/><rect x="24.33" y="82.83" width="13.85" height="4.48" fill="#fff"/><path d="M38.18,87.81H24.33l-.5-.5V82.83l.5-.5H38.18l.5.5v4.48Zm-13.35-1H37.69V83.33H24.83Z" fill="#0076b7"/><polygon points="26.07 82.83 24.65 81.36 24.65 76.65 26.86 74.88 26.86 69.11 24.65 69.11 24.65 65.66 36.77 65.66 36.77 69.11 38.18 69.11 38.18 80.51 36.44 82.83 26.07 82.83" fill="#fff"/><path d="M36.44,83.33H26.07l-.36-.15-1.42-1.47-.14-.35V76.65l.19-.39,2-1.62v-5H24.65l-.5-.5V65.66l.5-.5H36.77l.5.5v3h.91l.5.49v11.4l-.1.3-1.74,2.32Zm-10.16-1h9.91l1.5-2V69.61h-.92l-.49-.5v-3H25.15v2.47h1.71l.5.49v5.77l-.19.38-2,1.63v4.27Z" fill="#0076b7"/><rect x="129.28" y="54.04" width="2.39" height="0.5" fill="#0076b7"/><rect x="7.01" y="86.81" width="36.78" height="2.78" fill="#0076b7"/><path d="M43.78,97.7H5V86.81h38.8Zm-38-1H43v-8.9H5.76Z" fill="#0076b7"/><rect x="39.24" y="88.2" width="0.5" height="9" fill="#0076b7"/><rect x="32.66" y="92.45" width="9.8" height="0.5" transform="translate(-62.44 90.68) rotate(-66.79)" fill="#0076b7"/><rect x="33.83" y="88.2" width="0.5" height="9" fill="#0076b7"/><rect x="27.25" y="92.45" width="9.8" height="0.5" transform="translate(-65.72 85.71) rotate(-66.79)" fill="#0076b7"/><rect x="29.18" y="88.2" width="0.5" height="9" fill="#0076b7"/><rect x="22.6" y="92.45" width="9.8" height="0.5" transform="translate(-68.54 81.43) rotate(-66.79)" fill="#0076b7"/><rect x="24.4" y="88.2" width="0.5" height="9" fill="#0076b7"/><rect x="17.82" y="92.45" width="9.8" height="0.5" transform="translate(-71.43 77.04) rotate(-66.79)" fill="#0076b7"/><rect x="19.25" y="88.2" width="0.5" height="9" fill="#0076b7"/><rect x="12.67" y="92.45" width="9.8" height="0.5" transform="translate(-74.55 72.31) rotate(-66.79)" fill="#0076b7"/><rect x="14.04" y="88.2" width="0.5" height="9" fill="#0076b7"/><rect x="7.46" y="92.45" width="9.8" height="0.5" transform="translate(-77.71 67.52) rotate(-66.79)" fill="#0076b7"/><rect x="47.15" y="79.36" width="25.82" height="3.23" fill="#0076b7"/><rect x="48.87" y="82.58" width="22.38" height="11.99" fill="#0076b7"/><rect x="56.1" y="84.66" width="2.65" height="1.08" fill="#fff"/><rect x="59.59" y="84.66" width="2.65" height="1.08" fill="#fff"/><rect x="63.07" y="84.66" width="2.65" height="1.08" fill="#fff"/><rect x="66.56" y="84.66" width="2.65" height="1.08" fill="#fff"/><rect x="56.1" y="86.77" width="2.65" height="1.08" fill="#fff"/><rect x="59.59" y="86.77" width="2.65" height="1.08" fill="#fff"/><rect x="63.07" y="86.77" width="2.65" height="1.08" fill="#fff"/><rect x="66.56" y="86.77" width="2.65" height="1.08" fill="#fff"/><path d="M52.12,106.06A13.08,13.08,0,0,1,47,94.94L107,80l3.65-3.12a80.23,80.23,0,0,1,34-1.33,53.13,53.13,0,0,1-9,23.43c.5,2.37,1,4.73,1.49,7.1Z" fill="#fff"/><path d="M138.16,106.81H51.87l-.2-.16a13.85,13.85,0,0,1-5.44-11.74l0-.56,10.53-2.62,49.9-12.43,3.65-3.12.17-.05a81,81,0,0,1,34.33-1.34l.7.13-.09.7a54.13,54.13,0,0,1-8.9,23.5Zm-85.78-1.5h83.94L135,98.8l.18-.27a52.29,52.29,0,0,0,8.74-22.39,79.25,79.25,0,0,0-32.82,1.4l-3.65,3.12-.18,0L47.71,95.53a12.53,12.53,0,0,0,1.42,5.87A12.37,12.37,0,0,0,52.38,105.31Z" fill="#0076b7"/><path d="M111,77l-.47-.18L112,73l.12,0a59.56,59.56,0,0,1,32.66,0l.18,0v2.34h-.5v-2a59.12,59.12,0,0,0-32.08,0Z" fill="#0076b7"/><rect x="114.35" y="72.58" width="0.5" height="3.12" fill="#0076b7"/><rect x="117.89" y="71.84" width="0.5" height="3.35" fill="#0076b7"/><rect x="120.91" y="71.39" width="0.5" height="3.56" fill="#0076b7"/><rect x="123.89" y="71.1" width="0.5" height="3.04" fill="#0076b7"/><rect x="127.87" y="71.1" width="0.5" height="3.04" fill="#0076b7"/><rect x="133.18" y="71.39" width="0.5" height="2.55" fill="#0076b7"/><rect x="136.66" y="71.84" width="0.5" height="2.1" fill="#0076b7"/><rect x="139.93" y="72.11" width="0.5" height="2.2" fill="#0076b7"/><rect x="142.42" y="72.67" width="0.5" height="2.53" fill="#0076b7"/><polyline points="128.94 74.33 128.97 73.93 130.61 51.47 130.27 73.52" fill="#0076b7"/><polygon points="129.19 74.34 128.7 74.31 130.36 51.45 130.85 51.47 130.52 73.53 130.03 73.52 130.23 60.13 129.19 74.34" fill="#0076b7"/><polyline points="10.06 81.59 13.13 73.03 14.73 81.36 19.21 71.86 20.49 81.07 25.72 70.62 27.92 80.7 34.08 69.02 37.56 80.22 45.69 66.8 53.68 75 61.47 63.78 67.89 70.4 75.34 61.12 81.88 65.88 85.65 59.15 88.56 63.45" fill="none" stroke="#0076b7" stroke-linecap="square" stroke-linejoin="bevel" stroke-width="1"/><polygon points="6.08 74.38 92.07 57.92 88.71 63.67 37.56 80.22 6.08 81.79 6.08 74.38" fill="none" stroke="#0076b7" stroke-miterlimit="10" stroke-width="1"/><polygon points="46.24 77.78 45.81 77.53 52.91 65.25 53.28 65.18 61.63 72.04 67.67 62.42 68.03 62.35 75.34 67.64 82.1 59.63 82.46 59.61 87.31 64.22 86.97 64.58 82.31 60.15 75.57 68.14 75.23 68.18 67.95 62.91 61.9 72.54 61.53 72.6 53.2 65.75 46.24 77.78" fill="#0076b7"/><rect x="92.75" y="57.32" width="0.37" height="0.5" fill="#0076b7"/><path d="M93.13,67.89h-.38v-1h.38Zm0-2h-.38v-1h.38Zm0-2h-.38v-1h.38Zm0-2h-.38v-1h.38Zm0-2h-.38v-1h.38Z" fill="#0076b7"/><rect x="92.75" y="68.89" width="0.37" height="0.5" fill="#0076b7"/><rect x="87.96" y="69.39" width="9.71" height="4.73" fill="#0076b7"/><path d="M97.86,74.31H87.78V69.2H97.86Zm-9.71-.38h9.33V69.58H88.15Z" fill="#0076b7"/><ellipse cx="43.04" cy="43.01" rx="12.82" ry="3.98" fill="#0076b7"/><path d="M43,47.49c-6.46,0-13.32-1.57-13.32-4.48S36.58,38.53,43,38.53,56.35,40.1,56.35,43,49.49,47.49,43,47.49Zm0-8c-7.26,0-12.32,1.84-12.32,3.49S35.78,46.49,43,46.49,55.36,44.66,55.36,43,50.3,39.52,43,39.52Z" fill="#0076b7"/><ellipse cx="50.75" cy="39.03" rx="12.82" ry="3.98" fill="#0076b7"/><path d="M50.75,43.51c-6.45,0-13.31-1.57-13.31-4.48s6.86-4.48,13.31-4.48S64.07,36.12,64.07,39,57.21,43.51,50.75,43.51Zm0-8c-7.26,0-12.32,1.84-12.32,3.49s5.06,3.48,12.32,3.48S63.07,40.67,63.07,39,58,35.54,50.75,35.54Z" fill="#0076b7"/><ellipse cx="55.86" cy="43.01" rx="12.82" ry="3.98" fill="#0076b7"/><path d="M55.86,47.49c-6.46,0-13.32-1.57-13.32-4.48s6.86-4.48,13.32-4.48S69.17,40.1,69.17,43,62.31,47.49,55.86,47.49Zm0-8c-7.27,0-12.32,1.84-12.32,3.49s5.05,3.48,12.32,3.48S68.18,44.66,68.18,43,63.12,39.52,55.86,39.52Z" fill="#0076b7"/><ellipse cx="79.98" cy="31.24" rx="8.59" ry="2.67" fill="#0076b7"/><path d="M80,34.41c-4.52,0-9.09-1.09-9.09-3.17s4.57-3.17,9.09-3.17,9.08,1.09,9.08,3.17S84.49,34.41,80,34.41Zm0-5.34c-4.94,0-8.09,1.29-8.09,2.17S75,33.41,80,33.41s8.09-1.28,8.09-2.17S84.92,29.07,80,29.07Z" fill="#0076b7"/><ellipse cx="83.4" cy="28.57" rx="5.17" ry="2.67" fill="#0076b7"/><path d="M83.4,31.74c-3.18,0-5.67-1.39-5.67-3.17s2.49-3.16,5.67-3.16,5.66,1.39,5.66,3.16S86.57,31.74,83.4,31.74Zm0-5.34c-2.75,0-4.67,1.15-4.67,2.17s1.92,2.17,4.67,2.17,4.67-1.14,4.67-2.17S86.15,26.4,83.4,26.4Z" fill="#0076b7"/><path d="M77.73,154.9Z" fill="#fff" stroke="#fff" stroke-miterlimit="10" stroke-width="9.96"/><path d="M7.41,98.91c0,.1,0,.19.07.29,0-.1-.05-.19-.07-.29Z" fill="#fff" stroke="#fff" stroke-miterlimit="10" stroke-width="9.96"/><path d="M8.18,100.14H7.72l-.24-1c7.9,32.11,35,55.78,67.27,55.78,1,0,2,0,3-.07l-1.19,0C67.39,123.22,40.21,100.14,8.18,100.14Z" fill="#fff" stroke="#fff" stroke-miterlimit="10" stroke-width="4.48"/><circle cx="79.98" cy="79.98" r="75" fill="none" stroke="#0076b7" stroke-miterlimit="10" stroke-width="9.96"/><circle cx="79.98" cy="79.98" r="75" fill="none" stroke="#0076b7" stroke-miterlimit="10" stroke-width="9"/></g></g></svg>