<svg xmlns="http://www.w3.org/2000/svg" viewBox="0 0 159 159"><title>original</title><g id="Layer_2" data-name="Layer 2"><g id="Layer_1-2" data-name="Layer 1"><path d="M22.56,113.35V75.27c0-.15.09-.29.12-.44a5.77,5.77,0,0,1,3.23-4.33,17.84,17.84,0,0,1,2.21-.72H66.05l.53.13a6,6,0,0,1,4.73,4.2c.12.38.2.77.3,1.16v38.08c0,.15-.09.29-.12.44a5.81,5.81,0,0,1-3.27,4.35,17.18,17.18,0,0,1-2.17.7H28c-.13,0-.26-.09-.4-.12a6,6,0,0,1-4.86-4.55C22.7,113.9,22.63,113.62,22.56,113.35Zm39.21-22.8c0,.16.06.29.09.41.13.69.32,1.38.39,2.07A14.16,14.16,0,0,1,59,104a14.78,14.78,0,0,1-8,5,15.52,15.52,0,0,1-9.68-.65,14.87,14.87,0,0,1-4.84-3.11,14.51,14.51,0,0,1-2.71-3.52,14.41,14.41,0,0,1-1.58-9.61c.1-.52.23-1,.34-1.58H28c0,.14,0,.25,0,.37q0,10.08,0,20.17a2,2,0,0,0,2.14,2.12H63.91A2,2,0,0,0,66.06,111V90.55Zm-14.65,13.2a10.11,10.11,0,0,0,3.6-.66A9.53,9.53,0,0,0,57,94.35,9.07,9.07,0,0,0,54,87.4a9.62,9.62,0,0,0-5.63-2.65,9.77,9.77,0,0,0-6.82,1.58,9.24,9.24,0,0,0-4,5.67,9,9,0,0,0,2,8.27A9.7,9.7,0,0,0,47.12,103.75ZM61,84.93h2.62A2.21,2.21,0,0,0,66,82.53q0-2.43,0-4.86a2.25,2.25,0,0,0-2.42-2.45c-1.7,0-3.4,0-5.09,0a2.25,2.25,0,0,0-2.44,2.44c0,1.62,0,3.23,0,4.85a2.2,2.2,0,0,0,2.4,2.42Z" fill="#0076b7"/><path d="M130.44,100.33a23,23,0,0,1-6.57,1.77,11.54,11.54,0,0,0,5-6.3,22.87,22.87,0,0,1-7.27,2.74,11.43,11.43,0,0,0-19.8,7.72,11.23,11.23,0,0,0,.28,2.61A32.43,32.43,0,0,1,78.64,96.82a11.28,11.28,0,0,0-1.58,5.74,11.4,11.4,0,0,0,5,9.53,11.47,11.47,0,0,1-5.17-1.45v.14A11.43,11.43,0,0,0,86,122a11.5,11.5,0,0,1-3,.38,10.89,10.89,0,0,1-2.15-.21,11.44,11.44,0,0,0,10.64,8A23,23,0,0,1,77.31,135a24.4,24.4,0,0,1-2.73-.17,32.38,32.38,0,0,0,17.49,5.21c21,.1,32.59-17.26,32.66-32.36,0-.49,0-1,0-1.47A23.42,23.42,0,0,0,130.44,100.33Z" fill="#0076b7"/><path d="M139.33,49.88V84a2.93,2.93,0,0,0-.1.37A8.47,8.47,0,0,1,133,91c-.33.1-.67.16-1,.25H122.6c0-.13,0-.26,0-.39v-18h7.66c.34,0,.47-.08.46-.45q0-3.61,0-7.24c0-.13,0-.27,0-.46H122.6c0-1.26-.06-2.46,0-3.66a1.73,1.73,0,0,1,1.93-1.74h5.61l.49,0V51.23h-6.4a8.07,8.07,0,0,0-4.77,1.51,10.31,10.31,0,0,0-4.33,7.1,38.86,38.86,0,0,0-.17,4.46v.48H109c0,.13,0,.22,0,.31,0,2.48,0,5,0,7.43,0,.33.14.38.42.38H115v18.4h-17l-.33-.1A8.41,8.41,0,0,1,90.87,85c-.1-.33-.17-.67-.26-1V49.88c0-.18.1-.35.14-.52a8.4,8.4,0,0,1,6-6.51c.37-.12.75-.19,1.13-.29H132l.29.09a8.43,8.43,0,0,1,6.78,6.25C139.18,49.22,139.25,49.55,139.33,49.88Z" fill="#0076b7"/><path d="M61.77,15.4l3.13,0c.11,0,.23.06.35.07a25.28,25.28,0,0,1,7.63,1.69,24.93,24.93,0,0,1,10.74,8,24.29,24.29,0,0,1,5,11.69c.08.58.17,1.16.26,1.74l0,3.12a2.21,2.21,0,0,0-.08.35,25.59,25.59,0,0,1-1.52,7.08,24.85,24.85,0,0,1-5.6,8.8,24.36,24.36,0,0,1-5.33,4.14A25.5,25.5,0,0,1,52,62.68a.86.86,0,0,0-.61,0c-1.49.48-3,1-4.45,1.47l-6.54,2.17c-.83.28-1.65.58-2.47.87L37.74,67c.08-.19.18-.38.25-.59.54-1.65,1.07-3.3,1.61-4.95.81-2.49,1.63-5,2.42-7.46a1,1,0,0,0-.07-.65c-.31-.63-.68-1.24-1-1.88a24,24,0,0,1-2.51-9A24.33,24.33,0,0,1,39,34.7a24.69,24.69,0,0,1,4.18-9,25.26,25.26,0,0,1,16.7-10ZM44,60.84l1-.29,6.73-2.24a1,1,0,0,1,.85.09c1,.53,2,1.08,3,1.53a20.3,20.3,0,0,0,8.46,1.57,20.89,20.89,0,0,0,8.61-2,21.29,21.29,0,0,0,10.09-10,20.8,20.8,0,0,0-2.21-21.79,21.09,21.09,0,0,0-5.12-4.81,20.74,20.74,0,0,0-8.66-3.34,21.3,21.3,0,0,0-21.09,9.6A20.69,20.69,0,0,0,42.84,36a21.29,21.29,0,0,0-.4,6,20.77,20.77,0,0,0,3.94,10.73.62.62,0,0,1,.08.64c-.67,2-1.33,4-2,6C44.33,59.85,44.19,60.31,44,60.84Z" fill="#0076b7"/><path d="M55.64,29.13h.71a1,1,0,0,1,.92.52c.33.67.64,1.35.95,2,.43,1,.81,2,1.27,2.89a1.61,1.61,0,0,1-.19,1.74c-.41.57-.87,1.12-1.32,1.67a1,1,0,0,0-.1,1.27,16.86,16.86,0,0,0,6.44,6.16c.72.37,1.46.69,2.21,1a.88.88,0,0,0,1.22-.35l1.8-2.28a1,1,0,0,1,1.36-.37c1.69.75,3.36,1.54,5,2.3a.83.83,0,0,1,.55.94,15.89,15.89,0,0,1-.4,2.29,3.51,3.51,0,0,1-1.54,1.82A6.35,6.35,0,0,1,69.07,52c-1.35-.36-2.67-.81-4-1.26a19.69,19.69,0,0,1-7.77-5.12,30.73,30.73,0,0,1-4.76-6.19,8.36,8.36,0,0,1-1.15-6,6.72,6.72,0,0,1,2.31-3.79A2.37,2.37,0,0,1,55.64,29.13Z" fill="#0076b7"/><circle cx="79.5" cy="79.5" r="75" fill="none" stroke="#0076b7" stroke-miterlimit="10" stroke-width="9"/><line x1="28.49" y1="129.75" x2="129.75" y2="28.49" fill="none" stroke="#0076b7" stroke-miterlimit="10" stroke-width="9"/></g></g></svg>